<?xml version="1.0" standalone="no"?><!DOCTYPE svg PUBLIC "-//W3C//DTD SVG 1.1//EN" "http://www.w3.org/Graphics/SVG/1.1/DTD/svg11.dtd"><svg t="1633950304118" class="icon" viewBox="0 0 1024 1024" version="1.1" xmlns="http://www.w3.org/2000/svg" p-id="8436" xmlns:xlink="http://www.w3.org/1999/xlink" width="32" height="32"><defs><style type="text/css"></style></defs><path d="M918.362566 956.685895 106.992291 956.685895c-14.145162 0-25.611308-11.466146-25.611308-25.611308L81.380984 191.053314c0-14.145162 11.467169-25.611308 25.611308-25.611308l811.370275 0c14.145162 0 25.611308 11.467169 25.611308 25.611308l0 740.02025C943.974897 945.219749 932.508751 956.685895 918.362566 956.685895zM132.603599 905.462257l760.146637 0L892.750235 216.665645 132.603599 216.665645 132.603599 905.462257z" p-id="8437" fill="#ffffff"></path><path d="M915.696854 410.394904 109.450273 410.394904c-14.145162 0-25.611308-11.467169-25.611308-25.611308s11.467169-25.611308 25.611308-25.611308l806.246581 0c14.145162 0 25.611308 11.467169 25.611308 25.611308S929.842015 410.394904 915.696854 410.394904z" p-id="8438" fill="#ffffff"></path><path d="M248.987283 313.735447c-14.145162 0-25.611308-11.467169-25.611308-25.611308L223.375975 91.962481c0-14.145162 11.467169-25.611308 25.611308-25.611308s25.611308 11.467169 25.611308 25.611308l0 196.160635C274.59859 302.269301 263.132444 313.735447 248.987283 313.735447z" p-id="8439" fill="#ffffff"></path><path d="M786.915815 313.735447c-14.145162 0-25.611308-11.467169-25.611308-25.611308L761.304508 91.962481c0-14.145162 11.466146-25.611308 25.611308-25.611308s25.611308 11.467169 25.611308 25.611308l0 196.160635C812.527123 302.269301 801.060977 313.735447 786.915815 313.735447z" p-id="8440" fill="#ffffff"></path><path d="M378.463146 832.067666c-4.732791 0-9.406231-1.641383-13.156648-4.787026-5.810333-4.874007-8.448416-12.56006-6.856152-19.97596l21.574365-100.484575c0.699941-3.261277 2.186805-6.30152 4.329609-8.856715l173.234483-206.507284c3.488451-4.158716 8.486278-6.760984 13.893428-7.234775 5.392824-0.473791 10.779507 1.219781 14.939247 4.709255l73.627904 61.765739c8.66024 7.264451 9.790994 20.173458 2.526543 28.832675L489.341443 786.03526c-2.143826 2.555196-4.880147 4.548596-7.969509 5.805216l-95.201246 38.71986C383.679961 831.573409 381.062344 832.067666 378.463146 832.067666zM418.978908 720.378911l-12.386098 57.68684 54.653761-22.228257 156.816558-186.93553-42.268686-35.458583L418.978908 720.378911z" p-id="8441" fill="#ffffff"></path><path d="M483.354078 781.820262c-6.737448 0.001023-13.334703-3.322675-17.244756-9.414417l-23.737634-36.991496-40.554648-16.944927c-10.429537-4.358261-15.35164-16.34527-10.994402-26.774807 4.357238-10.42749 16.343223-15.350616 26.774807-10.993378l46.442752 19.404955c3.834328 1.601474 7.090489 4.333702 9.334599 7.830339l27.183106 42.361807c6.105045 9.513678 3.342118 22.174022-6.17156 28.278043C490.967476 780.771373 487.137241 781.820262 483.354078 781.820262z" p-id="8442" fill="#ffffff"></path><path d="M601.041454 641.489166c-4.641717 0-9.307993-1.569752-13.143345-4.787026l-73.625858-61.765739c-8.659217-7.264451-9.78997-20.173458-2.52552-28.833699 7.263427-8.659217 20.171412-9.78997 28.833699-2.52552l73.625858 61.765739c8.659217 7.264451 9.78997 20.173458 2.52552 28.833699C612.683609 639.001509 606.882486 641.489166 601.041454 641.489166z" p-id="8443" fill="#ffffff"></path></svg>